<?xml version="1.0" encoding="UTF-8"?>
<svg id="Layer_2" data-name="Layer 2" xmlns="http://www.w3.org/2000/svg" viewBox="0 0 17.62 19.68">
  <defs>
    <style>
      .cls-1 {
        fill: #fff;
        stroke: #000;
        stroke-miterlimit: 10;
        stroke-width: .75px;
      }
    </style>
  </defs>
  <g id="Layer_3" data-name="Layer 3">
    <rect class="cls-1" x=".38" y=".38" width="16.87" height="18.93" rx="3" ry="3"/>
    <g>
      <path d="M12.33,10.72c-2.17-.45-4.45-.43-6.62,0l-.59-6.15c-.13-1.06.62-2.03,1.68-2.14,1.44.08,3.01-.11,4.44,0,1.02.08,1.78,1,1.71,2.01l-.62,6.28Z"/>
      <path d="M4.85,9.81c.05.53.17,1.25.73,1.46.43-.11.87-.2,1.31-.25,1.51-.19,3.25-.17,4.75.07.17.03.75.19.85.18.49-.07.72-1.02.71-1.43h.98v2.07c0,.44-.6.9-1.03.86H4.97c-.58,0-1.09-.43-1.09-1.03v-1.89l.05-.05h.93Z"/>
      <path d="M9.91,13.27v1.5c.81.08,1.66.25,2.37.65.53.29,1.15.85.9,1.53-.34.91-1.85.56-1.58-.57.05-.2.2-.26.27-.43-.5-.22-1.02-.37-1.56-.45-.31-.05-.62-.06-.92-.1v1.17c.68.28.64,1.29-.05,1.53-1.04.37-1.62-1.11-.64-1.53v-1.17c-.86.06-1.72.19-2.51.56.74.64.08,1.82-.85,1.45-.39-.15-.58-.57-.49-.97.26-1.12,2.32-1.58,3.29-1.65v-1.5h1.76Z"/>
      <path d="M13.04,9.42c0-.88.97-1.4,1.72-.92.23.15.37.37.28.65-.04.11-.21.27-.32.27h-1.68Z"/>
      <path d="M5.02,9.42h-1.71s-.16-.09-.18-.11c-.36-.32-.04-.72.3-.88.75-.34,1.57.18,1.6.99Z"/>
    </g>
  </g>
</svg>