<?xml version="1.0" encoding="UTF-8"?>
<svg id="Layer_2" data-name="Layer 2" xmlns="http://www.w3.org/2000/svg" viewBox="0 0 18.5 20.66">
  <defs>
    <style>
      .cls-1 {
        fill: #fff;
        stroke: #000;
        stroke-miterlimit: 10;
        stroke-width: .75px;
      }
    </style>
  </defs>
  <g id="Layer_3" data-name="Layer 3">
    <g>
      <rect class="cls-1" x=".38" y=".38" width="17.75" height="19.91" rx="3" ry="3"/>
      <path d="M3.55,6.97c-.02-.32-.01-.57.31-.72.27-.12,1.24-.15,1.54-.11.62.09.58.93.79,1.37l.1-.16c-.18-.61-.26-1.44-1.1-1.38-.12-.31.07-.59.38-.67.23-.06.99-.16,1.2-.1.42.11.39.59.52.92l.59-.18c.07-.35-.11-.94.14-1.21.44-.47,2.21-.49,2.53.1.14.26,0,.81.06,1.11l.59.18c.12-.3.11-.82.5-.92.23-.06,1.03.03,1.27.1.25.08.45.35.37.62-.02.07-.19.03-.27.05-.22.03-.38.13-.52.32-.12.17-.33.79-.35,1-.01.1.02.14.09.21.22-.44.17-1.28.79-1.37.3-.04,1.3,0,1.57.11.32.14.33.4.31.72h-.38s-.18.06-.21.07c-.59.27-.6,1.31-.83,1.85l.11.16.42-1.45c.16-.38.4-.49.8-.48s.85.02,1.25.05.8.19.85.64c.05.47-.31,1.59-.43,2.12-.16.75-.31,1.51-.48,2.26-.12.26-.83.4-1.1.42v1.15l.96-.39c.1-.03.21.04.21.14,0,.04-.04.07-.04.1,0,.09.06.18-.06.26-.21.13-.28-.09-.3-.09-.07,0-.5.2-.58.25.21.14.77.24.94.39.1.09.03.13,0,.21s0,.16-.07.22c-.18.15-.4-.05-.3-.26l-1-.39-1.03.39c.09.2-.07.44-.28.31-.13-.08-.06-.18-.07-.27,0-.07-.06-.14,0-.21l.94-.39-.57-.22c0,.16-.17.2-.3.13-.13-.08-.04-.2-.05-.29,0-.03-.05-.06-.05-.13,0-.09.1-.16.19-.13l.99.38v-1.04c-.22.07-.44.18-.66.26-.48.17-1.48.33-1.68.84-.15.39.02,1.26-.05,1.72-.03.19-.28.32-.44.39-1.05.44-3.74.44-4.79,0-.18-.07-.4-.19-.44-.4-.08-.46.1-1.32-.05-1.72-.2-.52-1.2-.66-1.68-.84-.16-.06-.32-.13-.48-.2-.03-.01-.18-.14-.18-.05v.99l.05.03.93-.38c.06-.02.13,0,.16.06.06.1.01.41-.11.46-.17.07-.22-.11-.29-.11-.11.01-.39.22-.54.2-.01.06,0,.04.03.06.24.15.64.22.9.36.08.1,0,.17,0,.24,0,.02.01.05,0,.09-.09.29-.5.13-.35-.15l-1.03-.39-1.03.39c.13.19-.03.43-.25.31-.14-.08-.06-.18-.07-.27,0-.07-.09-.1,0-.21.13-.14.73-.26.91-.39l-.54-.22c-.02.18-.28.22-.36.06-.07-.13.02-.15.01-.2s-.16-.23.06-.29c.15-.04.84.36,1.04.38v-1.15c-.27-.03-.98-.17-1.1-.42-.17-.75-.31-1.51-.48-2.26-.11-.52-.48-1.65-.43-2.12.02-.22.16-.42.36-.52.35-.17,1.12-.13,1.52-.14s.73-.1.97.36l.46,1.54.11-.16-.43-1.45c-.08-.19-.4-.48-.62-.48h-.38ZM8.57,6.12c-.53.04-1.07.19-1.41.62-.92,1.31-2.15,2.54-3.04,3.86-.38.57-.22.76.33,1.03,2.27,1.1,6.75,1.06,9.1.21.51-.19,1.4-.47.89-1.16l-3.21-4.07c-.59-.57-1.88-.53-2.66-.48Z"/>
    </g>
  </g>
</svg>