<?xml version="1.0" encoding="UTF-8"?>
<svg id="Layer_2" data-name="Layer 2" xmlns="http://www.w3.org/2000/svg" viewBox="0 0 18.5 20.66">
  <defs>
    <style>
      .cls-1 {
        fill: #fff;
        stroke: #000;
        stroke-miterlimit: 10;
        stroke-width: .75px;
      }
    </style>
  </defs>
  <g id="Layer_3" data-name="Layer 3">
    <rect class="cls-1" x=".38" y=".38" width="17.75" height="19.91" rx="3" ry="3"/>
    <g>
      <g>
        <path d="M11.2,11.49v.89s.11.23.15.26c.2.21.48.2.72.09v2.9H2.68v-4.14h8.52Z"/>
        <rect x="1.97" y="10.21" width="9.23" height="1.03"/>
      </g>
      <g>
        <path d="M10.66,9.96h-.66v-1.18s-.04-.1-.07-.11c-.05-.01-.18.02-.18.06v1.22h-1.45v-1.22s-.13-.08-.18-.06c-.02,0-.07.1-.07.11v1.18h-.66v-1.8c0-.64.83-1.31,1.43-1.38.83-.1,1.84.59,1.84,1.46v1.72Z"/>
        <circle cx="9.02" cy="5.48" r="1.01"/>
      </g>
      <g>
        <path d="M12.07,12.29c-.07.33-.51.37-.61.03.02-.67-.06-1.4-.01-2.06.12-1.46,1.77-2.24,2.98-1.4,1.14.79.71,2.28.78,3.46-.08.34-.57.25-.57.05v-1.74c0-.08-.25-.21-.29.08-.1,1.59.15,3.27.05,4.84-.02.23-.04.45-.25.57-.26.15-.51.03-.64-.22-.1-.76.07-1.64-.02-2.38-.03-.23-.21-.35-.25-.08-.12.8,0,1.63-.04,2.44-.19.42-.73.41-.87-.04v-5.13c-.03-.24-.25-.2-.25-.12v1.7Z"/>
        <path d="M15.46,11.49h.41s-.04.05-.04.06v4.08h-1.2v-2.9c.25.24.83-.06.83-.35v-.89Z"/>
        <circle cx="13.33" cy="7.16" r="1.11"/>
        <rect x="15.46" y="10.21" width="1.08" height="1.03"/>
      </g>
      <g>
        <polygon points="6.11 7.06 6.11 9.13 4.87 9.13 4.83 8.69 3.71 8.69 3.67 9.13 2.43 9.13 2.43 7.06 6.11 7.06"/>
        <rect x="3.92" y="8.92" width=".7" height="1.03"/>
      </g>
    </g>
  </g>
</svg>