<?xml version="1.0" encoding="UTF-8"?>
<svg xmlns="http://www.w3.org/2000/svg" id="Layer_2" data-name="Layer 2" viewBox="0 0 1672.5 892.01">
  <defs>
    <style>
      .cls-1 {
        fill: #909394;
      }

      .cls-1, .cls-2 {
        stroke-width: 0px;
      }

      .cls-2 {
        fill: #fff;
      }
    </style>
  </defs>
  <g id="Layer_2-2" data-name="Layer 2">
    <g>
      <path class="cls-2" d="M1036.4,76.01s-4.2,61.9,58.7,62.7,79.6-34.8,70.5-57.9c-9.3-23.2-129.2-4.8-129.2-4.8Z"></path>
      <rect class="cls-1" y="256.21" width="67.9" height="389.9"></rect>
      <rect class="cls-1" x="205.3" y="256.21" width="67.9" height="389.9"></rect>
      <rect class="cls-1" x="16.17" y="406.22" width="231.8" height="67.9"></rect>
      <polygon class="cls-2" points="1361.6 325.91 1361.6 258.01 1165.5 258.01 1165.5 268.41 1165.5 325.91 1165.5 400.41 1165.5 468.31 1165.5 646.61 1233.4 646.61 1233.4 468.31 1361.6 468.31 1361.6 400.41 1233.4 400.41 1233.4 325.91 1361.6 325.91"></polygon>
      <polygon class="cls-1" points="609.9 255.41 504.8 546.81 399.7 255.41 327.8 256.21 468.6 646.61 468.8 646.61 540.8 646.61 540.9 646.61 681.8 256.21 609.9 255.41"></polygon>
      <path class="cls-2" d="M899.2,250.71c-111.7,0-202.3,90.6-202.3,202.3s90.6,202.3,202.3,202.3,202.3-90.6,202.3-202.3-90.6-202.3-202.3-202.3ZM899.2,590.31c-75.8,0-137.2-61.4-137.2-137.2s61.4-137.2,137.2-137.2,137.2,61.4,137.2,137.2-61.4,137.2-137.2,137.2Z"></path>
      <path class="cls-1" d="M1364.9,646.61h205.3s-23.2-73.6-89.4-68.1c-66.2,5.5-115.9,68.1-115.9,68.1Z"></path>
      <polygon class="cls-1" points="1489.1 583.51 1648.6 274.41 1640.1 271.01 1482.3 581.81 1489.1 583.51"></polygon>
      <circle class="cls-1" cx="1651.9" cy="257.51" r="20.6"></circle>
      <polygon class="cls-1" points="1243.9 76.01 1638.4 244.91 1636.1 251.31 1243.9 96.21 1243.9 76.01"></polygon>
      <path class="cls-1" d="M972.6,62.51s99.9,50.2,262.1,38.1c0,0-2.2-76.2-91.6-97.1-89.4-21-170.5,59-170.5,59Z"></path>
      <g>
        <path class="cls-2" d="M869.5,374.21v27.3h-9.3v-27.3h-9.7v-7.9h28.6v7.9h-9.6Z"></path>
        <path class="cls-2" d="M915.5,366.21v35.2h-9.3v-13.4h-13.2v13.4h-9.3v-35.2h9.3v13.8h13.2v-13.8h9.3Z"></path>
        <path class="cls-2" d="M931.6,380.21h14.2v7.6h-14.2v5.7h16.2v7.9h-25.4v-35.2h25.4v7.9h-16.2v6.1Z"></path>
      </g>
      <g>
        <path class="cls-2" d="M878.4,433.91l-10.7,35.2h-9l-6-20.8-6,20.8h-9.1l-10.7-35.2h10l5.6,19.4,5.6-19.4h9.1l5.6,19.4,5.6-19.4h10Z"></path>
        <path class="cls-2" d="M889,467.41c-2.9-1.6-5.1-3.7-6.7-6.5s-2.4-5.9-2.4-9.3.8-6.6,2.4-9.3c1.6-2.8,3.8-4.9,6.7-6.5,2.9-1.6,6.2-2.4,9.9-2.4s7.1.8,10,2.4c2.9,1.6,5.2,3.7,6.8,6.5,1.6,2.8,2.4,5.9,2.4,9.3s-.8,6.6-2.4,9.3c-1.6,2.8-3.9,4.9-6.8,6.5s-6.2,2.4-10,2.4-7.1-.8-9.9-2.4ZM894,443.11c-1.5.8-2.6,2-3.5,3.5-.8,1.5-1.3,3.1-1.3,4.9s.4,3.5,1.3,5c.8,1.5,2,2.6,3.5,3.5,1.5.8,3.1,1.3,5,1.3s3.5-.4,5-1.3c1.5-.8,2.6-2,3.5-3.5.8-1.5,1.3-3.1,1.3-5,0-1.8-.4-3.4-1.3-4.9-.8-1.5-2-2.6-3.5-3.5-1.5-.8-3.1-1.3-5-1.3s-3.5.5-5,1.3Z"></path>
        <path class="cls-2" d="M971.3,433.91l-10.7,35.2h-9l-6-20.8-6,20.8h-9.1l-10.7-35.2h10l5.6,19.4,5.6-19.4h9.1l5.6,19.4,5.6-19.4h10Z"></path>
      </g>
      <g>
        <path class="cls-2" d="M864,519.01c0,1.1-.1,2.3-.2,3.7-.3,3-1.2,5.7-2.9,8.1-1.6,2.4-3.8,4.3-6.5,5.6s-5.8,2-9.2,2c-3.6,0-6.9-.8-9.8-2.4-2.9-1.6-5.2-3.8-6.8-6.6-1.7-2.8-2.5-5.8-2.5-9.2s.8-6.4,2.5-9.2,3.9-5,6.8-6.6c2.9-1.6,6.2-2.4,9.8-2.4s7,.8,9.8,2.4c2.8,1.6,5,3.9,6.8,6.8l-8.3,3.8c-2-3-4.8-4.6-8.2-4.6-1.8,0-3.5.4-5,1.3-1.5.8-2.7,2-3.5,3.5-.9,1.5-1.3,3.1-1.3,5,0,1.8.4,3.4,1.3,4.9.9,1.5,2,2.6,3.5,3.5,1.5.8,3.1,1.3,5,1.3,2.1,0,4-.5,5.5-1.5s2.5-2.4,2.9-4.1h-10.7v-7.1h20.9l.1,1.8Z"></path>
        <path class="cls-2" d="M877,536.71c-2.4-1.2-4.3-3-5.6-5.3-1.3-2.3-2-4.9-2-7.9v-20.8h9.3v20.8c0,2.1.6,3.6,1.8,4.8,1.2,1.1,2.8,1.7,4.9,1.7s3.6-.6,4.7-1.7c1.2-1.1,1.8-2.7,1.8-4.8v-20.8h9.3v20.8c0,3-.7,5.6-2,7.9-1.3,2.3-3.2,4-5.6,5.3-2.4,1.2-5.2,1.9-8.3,1.9-3.1-.1-5.9-.7-8.3-1.9Z"></path>
        <path class="cls-2" d="M927.2,524.51v13.4h-9.3v-13.4l-13.7-21.8h11l7.3,12.6,7.4-12.6h10.9l-13.6,21.8Z"></path>
        <path class="cls-2" d="M950.6,529.01c1.9.7,3.9,1,6,1,1.6,0,2.9-.2,3.7-.6s1.2-1.1,1.2-2c0-.8-.5-1.3-1.5-1.7s-2.6-.8-4.9-1.2c-2.8-.5-5.2-1.1-7.1-1.8s-3.6-1.7-5-3.3c-1.4-1.5-2.1-3.6-2.1-6.2,0-2.2.6-4.2,1.9-5.9,1.2-1.7,2.9-2.9,5.1-3.8,2.2-.9,4.6-1.3,7.3-1.3,2.9,0,5.5.4,8,1.3,2.5.9,4.7,2.2,6.7,3.9l-4.7,6.5c-1.3-1-2.9-1.8-4.8-2.4-1.8-.6-3.7-.9-5.5-.9-3.1,0-4.7.8-4.7,2.5,0,.7.5,1.2,1.5,1.6,1,.4,2.6.8,4.7,1.2,2.9.5,5.2,1.1,7.2,1.8,1.9.7,3.6,1.7,5,3.3,1.4,1.5,2.2,3.6,2.2,6.3,0,3.6-1.3,6.3-3.8,8.3s-6,3-10.5,3c-3.2,0-6.2-.5-9-1.6-2.8-1-5.3-2.5-7.4-4.3l4.9-6.5c1.9,1.2,3.7,2.2,5.6,2.8Z"></path>
      </g>
      <rect class="cls-1" y="673.41" width="1595.1" height="75.3"></rect>
      <rect class="cls-1" y="766.81" width="1595.1" height="125.2"></rect>
      <g>
        <path class="cls-2" d="M68.7,809.61c3,1.8,5.3,4.5,6.9,8.1,1.7,3.5,2.5,7.7,2.5,12.5v31.6h-17.7v-29.3c0-3-.9-5.4-2.7-7.2-1.8-1.7-4.1-2.6-7.1-2.6s-5.5.9-7.4,2.7c-2,1.8-3,4.2-3,7.1v29.3h-17.7v-73.9h17.7v27.4c5.7-5.7,11.7-8.5,18.2-8.5,3.9.1,7.3,1,10.3,2.8Z"></path>
        <path class="cls-2" d="M145.1,807.81v54h-17.7v-7.4c-5.8,5.7-11.8,8.5-18.2,8.5-3.9,0-7.3-.9-10.2-2.8-3-1.8-5.3-4.5-6.9-8.1-1.7-3.5-2.5-7.7-2.5-12.6v-31.6h17.7v29.3c0,3,.9,5.4,2.7,7.2,1.8,1.7,4.1,2.6,7.1,2.6s5.5-.9,7.4-2.7c2-1.8,3-4.2,3-7.1v-29.3h17.6Z"></path>
        <path class="cls-2" d="M213.1,787.91v73.9h-17.7v-6.3c-3.9,4.9-9.6,7.3-16.9,7.3-4.6,0-8.8-1.2-12.3-3.5-3.6-2.3-6.4-5.7-8.3-10-2-4.3-3-9.2-3-14.7s1-10.4,3-14.6c2-4.2,4.7-7.5,8.3-9.8,3.6-2.3,7.7-3.5,12.3-3.5,7.3,0,12.9,2.4,16.9,7.2v-26.1h17.7v.1ZM192.6,843.71c2-2.2,3-5.1,3-8.7s-1-6.7-3-8.9c-2-2.3-4.8-3.4-8.4-3.4s-6.4,1.1-8.4,3.4c-2.1,2.3-3.1,5.2-3.1,8.9,0,3.5,1,6.4,3.1,8.6,2.1,2.3,4.9,3.4,8.4,3.4,3.7,0,6.4-1.1,8.4-3.3Z"></path>
        <path class="cls-2" d="M233.9,861.51c-3.9-1.1-7.7-3.1-11.5-5.8l6.2-11.1c2.4,1.6,5.4,2.9,9,4,3.6,1,6.7,1.6,9.5,1.6,2.1,0,3.7-.2,4.8-.7,1.1-.5,1.7-1.3,1.7-2.5,0-1.3-.8-2.3-2.3-2.9-1.5-.6-4-1.3-7.5-2-4.2-.8-7.7-1.7-10.4-2.7-2.7-1-5.1-2.6-7.1-4.9-2-2.3-3-5.5-3-9.7,0-5.5,2.1-9.9,6.3-13.1,4.2-3.2,9.6-4.8,16.2-4.8,4.3,0,8.3.5,11.9,1.4,3.6,1,7,2.5,10.2,4.6l-5.3,11.4c-2.5-1.4-5.2-2.5-8.1-3.2-2.9-.8-5.6-1.1-8.1-1.1-1.7,0-3.1.3-4.3.8-1.2.5-1.8,1.4-1.8,2.6,0,1.3.7,2.2,2.2,2.7s3.8,1,7,1.5c4.3.7,7.8,1.5,10.6,2.5,2.8,1,5.2,2.6,7.3,5,2.1,2.4,3.1,5.8,3.1,10.1,0,5.7-2,10.1-6.1,13.3-4,3.2-9.5,4.8-16.5,4.8-5.4-.1-10.1-.7-14-1.8Z"></path>
        <path class="cls-2" d="M291.5,859.11c-4.5-2.5-8-5.9-10.5-10.2s-3.8-9-3.8-14.1,1.3-9.8,3.8-14.1,6.1-7.7,10.5-10.2c4.5-2.5,9.5-3.8,15.1-3.8s10.5,1.3,15,3.8,8,5.9,10.5,10.2,3.8,9,3.8,14.1-1.3,9.8-3.8,14.1-6.1,7.7-10.5,10.2c-4.5,2.5-9.5,3.8-15,3.8s-10.6-1.3-15.1-3.8ZM298.2,826.01c-2.1,2.3-3.1,5.2-3.1,8.8s1,6.5,3.1,8.8,4.9,3.5,8.5,3.5,6.4-1.2,8.5-3.5,3.1-5.3,3.1-8.8-1-6.5-3.1-8.8-4.9-3.4-8.5-3.4-6.4,1.1-8.5,3.4Z"></path>
        <path class="cls-2" d="M391.9,809.51c3,1.8,5.3,4.5,6.9,8.1,1.7,3.5,2.5,7.7,2.5,12.6v31.6h-17.7v-29.3c0-3-.9-5.4-2.7-7.2-1.8-1.7-4.1-2.6-7.1-2.6s-5.5.9-7.4,2.7c-2,1.8-3,4.2-3,7.1v29.3h-17.7v-54h17.7v7.4c5.8-5.7,11.8-8.5,18.2-8.5,3.9.1,7.3,1,10.3,2.8Z"></path>
        <path class="cls-2" d="M454.4,807.81l12.2,32.6,12.3-32.6h19.4l-22.6,54h-18.3l-22.5-54h19.5Z"></path>
        <path class="cls-2" d="M536.1,856.51c-1.3,1.8-3.3,3.4-6,4.5-2.7,1.2-5.8,1.8-9.4,1.8-6.2,0-11.1-1.4-14.8-4.3-3.7-2.9-5.6-7-5.6-12.3,0-3.7,1.1-6.9,3.2-9.5,2.2-2.6,4.9-4.5,8.2-5.7s6.7-1.8,10.1-1.8c5,0,9.5.7,13.7,2,.1-3.4-.8-5.9-2.7-7.4s-4.5-2.3-7.8-2.3c-3.7,0-7.4.4-10.9,1.3-3.5.9-6,1.7-7.5,2.5l-4-12.8c8.3-3.8,16.6-5.7,25.2-5.7s15.5,2.1,19.5,6.3,6,10.5,6,19v29.8h-17.1l-.1-5.4ZM532.9,848.71c1.7-1.3,2.6-3.1,2.6-5.5v-2.6c-2.7-1.1-5.5-1.6-8.5-1.6-2.7,0-4.9.5-6.6,1.5-1.7,1-2.6,2.4-2.6,4.1,0,1.8.8,3.3,2.3,4.4,1.6,1.1,3.5,1.6,5.9,1.6,2.9,0,5.1-.6,6.9-1.9Z"></path>
        <path class="cls-2" d="M565.1,787.91h17.7v73.9h-17.7v-73.9Z"></path>
        <path class="cls-2" d="M595.3,787.91h17.7v73.9h-17.7v-73.9Z"></path>
        <path class="cls-2" d="M637.1,859.41c-4.7-2.3-8.2-5.6-10.7-9.9-2.4-4.2-3.7-9.1-3.7-14.6,0-5.9,1.4-11,4.1-15.2,2.7-4.3,6.3-7.5,10.6-9.6,4.3-2.2,8.9-3.2,13.7-3.2,5.6,0,10.5,1.2,14.7,3.5s7.5,5.7,9.9,10.1c2.3,4.4,3.5,9.7,3.5,15.8,0,1.5-.1,3-.3,4.5h-38.1c.7,2.3,2.3,4.2,4.8,5.7s5.6,2.3,9.4,2.3c2.5,0,4.8-.4,6.9-1.3,2.1-.9,3.9-1.9,5.3-3.1l9.5,8.5c-2.2,2.8-5.3,5.2-9.3,7.1-4,2-8.6,3-13.8,3-6.3-.1-11.8-1.3-16.5-3.6ZM643.7,824.01c-1.9,1.8-2.9,4-3,6.6h20.5c-.2-2.7-1.1-4.9-2.9-6.7-1.7-1.8-4.1-2.7-7.2-2.7-3.1.1-5.5,1-7.4,2.8Z"></path>
        <path class="cls-2" d="M746.1,807.81l-24.3,58c-2.4,5.8-5.3,10.1-8.8,12.8-3.4,2.7-8.1,4-13.9,4-3.4,0-6.4-.3-9.1-1-2.7-.7-5.7-1.9-9.1-3.5l5.6-14c2,1,3.8,1.8,5.4,2.3,1.6.5,3.4.8,5.5.8s3.7-.5,5-1.5,2.4-2.5,3.2-4.5l.1-.3-23.6-53.1h20l12.2,31.5,12.6-31.5h19.2Z"></path>
        <path class="cls-2" d="M792.2,859.11c-4.5-2.5-8-5.9-10.5-10.2s-3.8-9-3.8-14.1,1.3-9.8,3.8-14.1,6.1-7.7,10.5-10.2c4.5-2.5,9.5-3.8,15.1-3.8s10.5,1.3,15,3.8,8,5.9,10.5,10.2,3.8,9,3.8,14.1-1.3,9.8-3.8,14.1-6.1,7.7-10.5,10.2c-4.5,2.5-9.5,3.8-15,3.8s-10.7-1.3-15.1-3.8ZM798.8,826.01c-2.1,2.3-3.1,5.2-3.1,8.8s1,6.5,3.1,8.8,4.9,3.5,8.5,3.5,6.4-1.2,8.5-3.5,3.1-5.3,3.1-8.8-1-6.5-3.1-8.8-4.9-3.4-8.5-3.4-6.4,1.1-8.5,3.4Z"></path>
        <path class="cls-2" d="M866.5,861.91h-17.7v-37.3h-5.9v-15.8h6.1v-3.9c0-5.1,1.5-9.3,4.4-12.6,3-3.3,7.5-5,13.6-5,3.3,0,6.4.6,9.2,1.7,2.9,1.1,5.3,2.5,7.2,4l-6.9,10.3c-.6-.6-1.3-1.1-2.1-1.5-.8-.4-1.7-.6-2.7-.6-1.7,0-3,.5-3.9,1.4-1,.9-1.4,2.3-1.4,4.1v2.1h11.8v15.8h-11.8v37.3h.1Z"></path>
        <path class="cls-2" d="M908.8,861.91h-17.7v-37.3h-5.9v-15.8h6.1v-3.9c0-5.1,1.5-9.3,4.4-12.6,3-3.3,7.5-5,13.6-5,3.3,0,6.4.6,9.2,1.7,2.9,1.1,5.3,2.5,7.2,4l-6.9,10.3c-.6-.6-1.3-1.1-2.1-1.5-.8-.4-1.7-.6-2.7-.6-1.7,0-3,.5-3.9,1.4-1,.9-1.4,2.3-1.4,4.1v2.1h11.8v15.8h-11.8v37.3h.1Z"></path>
        <path class="cls-2" d="M947.2,800.51c-1.9,1.8-4.1,2.7-6.8,2.7s-5.1-.9-7.1-2.7-3-4-3-6.6,1-4.6,3-6.5c2-1.8,4.3-2.8,7.1-2.8,2.6,0,4.9.9,6.8,2.7s2.9,4,2.9,6.5c-.1,2.7-1,4.9-2.9,6.7ZM931.4,807.81h17.7v54h-17.7v-54Z"></path>
        <path class="cls-2" d="M963.2,820.91c2.6-4.3,6.2-7.7,10.7-10.3,4.5-2.5,9.4-3.8,14.6-3.8,6.1,0,11.4,1.5,16,4.5,4.5,3,7.8,6.9,9.8,11.8l-15.2,6.1c-1.1-2-2.5-3.6-4.2-4.8-1.7-1.1-3.7-1.7-6.3-1.7-3.4,0-6.1,1.2-8.3,3.5-2.2,2.4-3.3,5.3-3.3,8.8s1.1,6.4,3.2,8.7c2.2,2.2,5,3.3,8.4,3.3,2.7,0,4.9-.5,6.6-1.6s3.1-2.6,4.3-4.6l15.1,6.1c-2,5.1-5.2,9-9.7,11.8s-9.9,4.2-16.2,4.2c-5.4,0-10.3-1.2-14.8-3.6-4.5-2.4-8-5.7-10.6-10s-3.9-9.1-3.9-14.4c-.2-5,1.1-9.7,3.8-14Z"></path>
        <path class="cls-2" d="M1033.3,859.41c-4.7-2.3-8.2-5.6-10.7-9.9-2.4-4.2-3.7-9.1-3.7-14.6,0-5.9,1.4-11,4.1-15.2,2.7-4.3,6.3-7.5,10.6-9.6,4.3-2.2,8.9-3.2,13.7-3.2,5.6,0,10.5,1.2,14.7,3.5s7.5,5.7,9.9,10.1c2.3,4.4,3.5,9.7,3.5,15.8,0,1.5-.1,3-.3,4.5h-38.1c.7,2.3,2.3,4.2,4.8,5.7s5.6,2.3,9.4,2.3c2.5,0,4.8-.4,6.9-1.3,2.1-.9,3.9-1.9,5.3-3.1l9.5,8.5c-2.2,2.8-5.3,5.2-9.3,7.1-4,2-8.6,3-13.8,3-6.3-.1-11.8-1.3-16.5-3.6ZM1039.9,824.01c-1.9,1.8-2.9,4-3,6.6h20.5c-.2-2.7-1.1-4.9-2.9-6.7-1.7-1.8-4.1-2.7-7.2-2.7-3.1.1-5.5,1-7.4,2.8Z"></path>
        <path class="cls-2" d="M1132.5,861.91h-17.7v-37.3h-5.9v-15.8h6.1v-3.9c0-5.1,1.5-9.3,4.4-12.6,3-3.3,7.5-5,13.6-5,3.3,0,6.4.6,9.2,1.7,2.9,1.1,5.3,2.5,7.2,4l-6.9,10.3c-.6-.6-1.3-1.1-2.1-1.5-.8-.4-1.7-.6-2.7-.6-1.7,0-3,.5-3.9,1.4-1,.9-1.4,2.3-1.4,4.1v2.1h11.8v15.8h-11.8v37.3h.1Z"></path>
        <path class="cls-2" d="M1209.8,807.81v54h-17.7v-7.4c-5.8,5.7-11.8,8.5-18.2,8.5-3.9,0-7.3-.9-10.2-2.8-3-1.8-5.3-4.5-6.9-8.1-1.7-3.5-2.5-7.7-2.5-12.6v-31.6h17.7v29.3c0,3,.9,5.4,2.7,7.2,1.8,1.7,4.1,2.6,7.1,2.6s5.5-.9,7.4-2.7c2-1.8,3-4.2,3-7.1v-29.3h17.6Z"></path>
        <path class="cls-2" d="M1247.7,810.21c3-1.9,6.8-2.9,11.5-2.9v18.6h-1.9c-11.6,0-17.3,5.3-17.3,15.8v20.2h-17.7v-54h17.7v9.7c2.2-3,4.8-5.5,7.7-7.4Z"></path>
        <path class="cls-2" d="M1314,809.51c3,1.8,5.3,4.5,6.9,8.1,1.7,3.5,2.5,7.7,2.5,12.6v31.6h-17.7v-29.3c0-3-.9-5.4-2.7-7.2-1.8-1.7-4.1-2.6-7.1-2.6s-5.5.9-7.4,2.7c-2,1.8-3,4.2-3,7.1v29.3h-17.7v-54h17.7v7.4c5.8-5.7,11.8-8.5,18.2-8.5,3.9.1,7.4,1,10.3,2.8Z"></path>
        <path class="cls-2" d="M1351.6,800.51c-1.9,1.8-4.1,2.7-6.8,2.7s-5.1-.9-7.1-2.7-3-4-3-6.6,1-4.6,3-6.5c2-1.8,4.3-2.8,7.1-2.8,2.6,0,4.9.9,6.8,2.7s2.9,4,2.9,6.5c-.1,2.7-1.1,4.9-2.9,6.7ZM1335.8,807.81h17.7v54h-17.7v-54Z"></path>
        <path class="cls-2" d="M1387.3,841.81c0,2.3.6,3.9,1.8,4.9,1.2,1,2.7,1.5,4.6,1.5,1.6,0,3.2-.3,4.8-.9l2.4,13.2c-1.3.6-3.2,1.2-5.5,1.6-2.4.4-5,.7-8,.7-5.7,0-10-1.3-13.1-3.9-3.1-2.6-4.7-6.4-4.7-11.4v-24.1h-5.7v-7.1l22.5-21.6h1v13.1h10.9v15.7h-10.9v18.3h-.1Z"></path>
        <path class="cls-2" d="M1464.9,807.81v54h-17.7v-7.4c-5.8,5.7-11.8,8.5-18.2,8.5-3.9,0-7.3-.9-10.2-2.8-3-1.8-5.3-4.5-6.9-8.1-1.7-3.5-2.5-7.7-2.5-12.6v-31.6h17.7v29.3c0,3,.9,5.4,2.7,7.2,1.8,1.7,4.1,2.6,7.1,2.6s5.5-.9,7.4-2.7c2-1.8,3-4.2,3-7.1v-29.3h17.6Z"></path>
        <path class="cls-2" d="M1502.8,810.21c3-1.9,6.8-2.9,11.5-2.9v18.6h-1.9c-11.6,0-17.3,5.3-17.3,15.8v20.2h-17.7v-54h17.7v9.7c2.2-3,4.7-5.5,7.7-7.4Z"></path>
        <path class="cls-2" d="M1534.1,859.41c-4.7-2.3-8.2-5.6-10.7-9.9-2.4-4.2-3.7-9.1-3.7-14.6,0-5.9,1.4-11,4.1-15.2,2.7-4.3,6.3-7.5,10.6-9.6,4.3-2.2,8.9-3.2,13.7-3.2,5.6,0,10.5,1.2,14.7,3.5s7.5,5.7,9.9,10.1c2.3,4.4,3.5,9.7,3.5,15.8,0,1.5-.1,3-.3,4.5h-38.1c.7,2.3,2.3,4.2,4.8,5.7s5.6,2.3,9.4,2.3c2.5,0,4.8-.4,6.9-1.3,2.1-.9,3.9-1.9,5.3-3.1l9.5,8.5c-2.2,2.8-5.3,5.2-9.3,7.1-4,2-8.6,3-13.8,3-6.3-.1-11.8-1.3-16.5-3.6ZM1540.7,824.01c-1.9,1.8-2.9,4-3,6.6h20.5c-.2-2.7-1.1-4.9-2.9-6.7-1.7-1.8-4.1-2.7-7.2-2.7-3.1.1-5.5,1-7.4,2.8Z"></path>
      </g>
    </g>
  </g>
</svg>
