<?xml version="1.0" encoding="UTF-8"?>
<svg id="Layer_2" xmlns="http://www.w3.org/2000/svg" version="1.1" viewBox="0 0 1672.5 892">
  <!-- Generator: Adobe Illustrator 29.2.1, SVG Export Plug-In . SVG Version: 2.1.0 Build 116)  -->
  <defs>
    <style>
      .st0 {
        fill: #e7c91e;
      }

      .st1 {
        fill: #fff;
      }

      .st2 {
        fill: #959fa7;
      }
    </style>
  </defs>
  <g id="Layer_2-2">
    <g>
      <path class="st0" d="M1036.4,76s-4.2,61.9,58.7,62.7c62.9.8,79.7-34.8,70.4-57.9-9.2-23.2-129.1-4.8-129.1-4.8Z"/>
      <rect class="st2" y="256.2" width="67.9" height="389.9"/>
      <rect class="st2" x="205.3" y="256.2" width="67.9" height="389.9"/>
      <rect class="st2" x="16.3" y="406.2" width="231.8" height="67.9"/>
      <polygon class="st0" points="1361.6 325.9 1361.6 258 1165.6 258 1165.6 268.4 1165.6 325.9 1165.6 400.4 1165.6 468.3 1165.6 646.6 1233.4 646.6 1233.4 468.3 1361.6 468.3 1361.6 400.4 1233.4 400.4 1233.4 325.9 1361.6 325.9"/>
      <polygon class="st2" points="610 255.4 504.8 546.8 399.7 255.4 327.8 256.2 468.7 646.6 468.8 646.6 540.8 646.6 541 646.6 681.8 256.2 610 255.4"/>
      <path class="st0" d="M899.2,250.7c-111.8,0-202.3,90.6-202.3,202.3s90.6,202.3,202.3,202.3,202.3-90.6,202.3-202.3-90.6-202.3-202.3-202.3h0ZM899.2,590.3c-75.8,0-137.2-61.4-137.2-137.2s61.4-137.2,137.2-137.2,137.2,61.4,137.2,137.2-61.4,137.2-137.2,137.2h0Z"/>
      <path class="st2" d="M1364.9,646.6h205.3s-23.2-73.6-89.4-68.1-115.9,68.1-115.9,68.1Z"/>
      <polygon class="st2" points="1489.1 583.5 1648.6 274.5 1640.1 271 1482.3 581.8 1489.1 583.5"/>
      <circle class="st2" cx="1651.9" cy="257.5" r="20.6"/>
      <polygon class="st2" points="1243.9 76 1638.4 244.9 1636.2 251.3 1243.9 96.2 1243.9 76"/>
      <path class="st2" d="M972.6,62.5s99.9,50.2,262.1,38.1c0,0-2.2-76.2-91.6-97.1-89.4-21-170.5,59-170.5,59h0Z"/>
      <rect class="st2" y="673.4" width="1595.1" height="75.3"/>
      <rect class="st2" y="766.8" width="1595.1" height="125.2"/>
      <g>
        <path class="st1" d="M68.7,809.6c2.9,1.8,5.3,4.5,6.9,8,1.7,3.5,2.5,7.7,2.5,12.5v31.6h-17.7v-29.3c0-3-.9-5.5-2.7-7.2-1.8-1.8-4.1-2.6-7-2.6s-5.5.9-7.4,2.7-3,4.2-3,7.1v29.3h-17.7v-73.9h17.7v27.4c5.7-5.7,11.7-8.5,18.2-8.5s7.3.9,10.2,2.8h0Z"/>
        <path class="st1" d="M145.2,807.8v54h-17.7v-7.4c-5.8,5.7-11.8,8.5-18.2,8.5s-7.3-.9-10.2-2.8-5.3-4.5-6.9-8c-1.7-3.5-2.5-7.7-2.5-12.6v-31.6h17.7v29.3c0,3,.9,5.5,2.7,7.2,1.8,1.8,4.1,2.6,7.1,2.6s5.5-.9,7.4-2.7c2-1.8,2.9-4.2,2.9-7.1v-29.3h17.7Z"/>
        <path class="st1" d="M213.1,787.9v73.9h-17.7v-6.3c-3.9,4.9-9.6,7.3-16.9,7.3s-8.8-1.2-12.3-3.5c-3.6-2.3-6.4-5.7-8.3-10-2-4.3-2.9-9.2-2.9-14.7s1-10.4,2.9-14.6c2-4.2,4.8-7.5,8.3-9.8s7.7-3.5,12.3-3.5c7.3,0,12.9,2.4,16.9,7.2v-26.1h17.7ZM192.7,843.7c2-2.2,3-5.1,3-8.7s-1-6.7-2.9-8.9c-2-2.2-4.8-3.4-8.4-3.4s-6.4,1.1-8.4,3.4c-2.1,2.3-3.1,5.2-3.1,8.9s1.1,6.4,3.1,8.6c2.1,2.3,4.9,3.4,8.4,3.4s6.3-1.1,8.3-3.3Z"/>
        <path class="st1" d="M233.9,861.5c-3.9-1.1-7.7-3.1-11.5-5.8l6.2-11c2.4,1.6,5.4,2.9,9,4,3.6,1,6.7,1.6,9.5,1.6s3.7-.2,4.8-.7c1.1-.5,1.7-1.3,1.7-2.5s-.8-2.3-2.3-2.9c-1.5-.6-4-1.2-7.5-2-4.2-.8-7.7-1.7-10.4-2.7s-5.1-2.6-7.1-4.9c-2-2.3-3.1-5.5-3.1-9.7s2.1-9.9,6.3-13.1c4.2-3.2,9.6-4.8,16.2-4.8s8.3.5,11.9,1.4c3.6,1,7,2.5,10.2,4.6l-5.3,11.4c-2.5-1.4-5.2-2.5-8.1-3.2s-5.6-1.1-8.1-1.1-3.1.2-4.3.8c-1.2.5-1.8,1.4-1.8,2.6s.7,2.2,2.2,2.7,3.8,1,7,1.5c4.2.7,7.8,1.5,10.6,2.5,2.8,1,5.2,2.6,7.3,5s3.1,5.8,3.1,10.1-2,10.1-6,13.3c-4,3.2-9.5,4.8-16.5,4.8s-10.1-.6-14-1.7h0Z"/>
        <path class="st1" d="M291.6,859.1c-4.5-2.5-8-5.9-10.5-10.2s-3.8-9-3.8-14.1,1.3-9.8,3.8-14c2.5-4.3,6-7.7,10.5-10.2s9.5-3.8,15.1-3.8,10.5,1.2,15,3.8,8,5.9,10.5,10.2c2.5,4.3,3.8,9,3.8,14s-1.3,9.8-3.8,14.1c-2.5,4.3-6,7.7-10.5,10.2s-9.5,3.8-15,3.8-10.6-1.2-15.1-3.8ZM298.2,826c-2.1,2.3-3.1,5.2-3.1,8.8s1,6.5,3.1,8.8c2.1,2.3,4.9,3.5,8.5,3.5s6.4-1.2,8.5-3.5,3.1-5.3,3.1-8.8-1-6.5-3.1-8.8c-2.1-2.3-4.9-3.4-8.5-3.4s-6.4,1.1-8.5,3.4Z"/>
        <path class="st1" d="M391.9,809.5c3,1.8,5.3,4.5,6.9,8,1.6,3.5,2.5,7.7,2.5,12.6v31.6h-17.7v-29.3c0-3-.9-5.5-2.7-7.2-1.8-1.8-4.1-2.6-7-2.6s-5.5.9-7.4,2.7-3,4.2-3,7.1v29.3h-17.7v-54h17.7v7.4c5.8-5.7,11.9-8.5,18.2-8.5s7.3.9,10.2,2.8h0Z"/>
        <path class="st1" d="M454.5,807.8l12.2,32.6,12.3-32.6h19.4l-22.6,54h-18.3l-22.5-54h19.4,0Z"/>
        <path class="st1" d="M536.1,856.5c-1.3,1.8-3.3,3.3-6,4.5-2.7,1.2-5.8,1.8-9.4,1.8-6.2,0-11.1-1.4-14.8-4.3-3.7-2.9-5.6-7-5.6-12.3s1.1-6.9,3.2-9.5,4.9-4.5,8.2-5.7c3.3-1.2,6.7-1.8,10.1-1.8,5,0,9.5.7,13.7,2,0-3.4-.8-5.9-2.7-7.4-1.9-1.5-4.5-2.3-7.8-2.3s-7.4.5-10.9,1.3c-3.5.9-6,1.7-7.5,2.5l-4-12.8c8.3-3.8,16.6-5.7,25.1-5.7s15.5,2.1,19.5,6.3c4,4.2,6,10.5,6,19v29.8h-17.1v-5.3c0,0,0,0,0,0ZM532.9,848.7c1.8-1.3,2.6-3.1,2.6-5.5v-2.6c-2.7-1.1-5.5-1.6-8.5-1.6s-4.9.5-6.6,1.5c-1.7,1-2.6,2.4-2.6,4.1s.8,3.3,2.3,4.4c1.6,1.1,3.5,1.6,5.9,1.6s5.1-.6,6.8-1.9h0Z"/>
        <path class="st1" d="M565.2,787.9h17.7v73.9h-17.7v-73.9Z"/>
        <path class="st1" d="M595.4,787.9h17.7v73.9h-17.7v-73.9Z"/>
        <path class="st1" d="M637.2,859.4c-4.7-2.3-8.2-5.6-10.7-9.9-2.5-4.2-3.7-9.1-3.7-14.6s1.4-11,4.1-15.2c2.7-4.3,6.3-7.5,10.6-9.6s8.9-3.2,13.7-3.2,10.5,1.2,14.7,3.5,7.5,5.7,9.9,10.2,3.5,9.7,3.5,15.8,0,3-.3,4.5h-38.1c.7,2.3,2.3,4.2,4.8,5.7,2.5,1.5,5.6,2.3,9.4,2.3s4.8-.4,6.9-1.3c2.1-.9,3.9-1.9,5.3-3.1l9.5,8.5c-2.2,2.8-5.3,5.2-9.3,7.2-4,2-8.6,3-13.8,3s-11.9-1.2-16.5-3.5h0ZM643.7,824c-1.9,1.8-2.9,4-3,6.6h20.5c-.2-2.7-1.1-4.9-2.9-6.7-1.7-1.8-4.1-2.7-7.2-2.7s-5.5.9-7.4,2.7h0Z"/>
        <path class="st1" d="M746.1,807.8l-24.3,58c-2.4,5.8-5.3,10.1-8.8,12.8-3.4,2.7-8.1,4-13.9,4s-6.4-.3-9-1-5.7-1.9-9.2-3.5l5.6-14c2,1,3.8,1.8,5.4,2.3,1.6.5,3.5.8,5.5.8s3.7-.5,5-1.5c1.3-1,2.4-2.5,3.2-4.5v-.3c0,0-23.5-53.1-23.5-53.1h20l12.2,31.5,12.6-31.5h19.2Z"/>
        <path class="st1" d="M792.2,859.1c-4.5-2.5-8-5.9-10.5-10.2-2.5-4.3-3.8-9-3.8-14.1s1.3-9.8,3.8-14c2.5-4.3,6-7.7,10.5-10.2,4.5-2.5,9.5-3.8,15.1-3.8s10.5,1.2,15,3.8,8,5.9,10.5,10.2c2.5,4.3,3.8,9,3.8,14s-1.3,9.8-3.8,14.1c-2.5,4.3-6,7.7-10.5,10.2-4.5,2.5-9.5,3.8-15,3.8s-10.6-1.2-15.1-3.8ZM798.8,826c-2.1,2.3-3.1,5.2-3.1,8.8s1,6.5,3.1,8.8c2.1,2.3,4.9,3.5,8.5,3.5s6.4-1.2,8.5-3.5,3.1-5.3,3.1-8.8-1-6.5-3.1-8.8c-2.1-2.3-4.9-3.4-8.5-3.4s-6.4,1.1-8.5,3.4Z"/>
        <path class="st1" d="M866.5,861.9h-17.7v-37.3h-5.9v-15.8h6.1v-3.9c0-5.1,1.5-9.3,4.4-12.6,3-3.3,7.5-5,13.6-5s6.4.6,9.2,1.7,5.3,2.5,7.2,4l-6.9,10.3c-.6-.6-1.3-1.1-2.1-1.5-.8-.4-1.7-.6-2.7-.6-1.7,0-3,.5-3.9,1.4-1,.9-1.4,2.3-1.4,4.2v2.1h11.8v15.8h-11.8v37.3h0Z"/>
        <path class="st1" d="M908.9,861.9h-17.7v-37.3h-5.9v-15.8h6.1v-3.9c0-5.1,1.5-9.3,4.4-12.6,3-3.3,7.5-5,13.6-5s6.4.6,9.2,1.7,5.3,2.5,7.2,4l-6.9,10.3c-.6-.6-1.3-1.1-2.1-1.5-.8-.4-1.7-.6-2.7-.6-1.7,0-3,.5-3.9,1.4-1,.9-1.4,2.3-1.4,4.2v2.1h11.8v15.8h-11.8v37.3h0Z"/>
        <path class="st1" d="M947.2,800.5c-1.9,1.8-4.2,2.7-6.8,2.7s-5.1-.9-7-2.7-3-4-3-6.6,1-4.6,3-6.5c2-1.8,4.3-2.8,7-2.8s4.9.9,6.8,2.7c1.9,1.8,2.9,4,2.9,6.5s-.9,4.8-2.8,6.6h0ZM931.4,807.8h17.7v54h-17.7v-54Z"/>
        <path class="st1" d="M963.2,820.9c2.6-4.3,6.2-7.8,10.7-10.3s9.3-3.8,14.6-3.8,11.4,1.5,16,4.5c4.5,3,7.8,6.9,9.8,11.8l-15.2,6.1c-1.1-2-2.5-3.6-4.2-4.8s-3.8-1.7-6.3-1.7-6.2,1.2-8.3,3.5c-2.2,2.3-3.3,5.3-3.3,8.8s1.1,6.5,3.2,8.7,5,3.3,8.4,3.3,4.9-.5,6.6-1.6c1.7-1.1,3.1-2.6,4.3-4.6l15,6.1c-2,5.1-5.2,9-9.7,11.8-4.5,2.8-9.9,4.2-16.2,4.2s-10.3-1.2-14.8-3.6-8-5.7-10.6-10c-2.6-4.3-3.9-9-3.9-14.4s1.3-9.8,4-14.1h0Z"/>
        <path class="st1" d="M1033.3,859.4c-4.7-2.3-8.2-5.6-10.7-9.9-2.5-4.2-3.7-9.1-3.7-14.6s1.4-11,4.1-15.2c2.7-4.3,6.3-7.5,10.6-9.6s8.9-3.2,13.7-3.2,10.5,1.2,14.7,3.5,7.5,5.7,9.9,10.2,3.5,9.7,3.5,15.8,0,3-.3,4.5h-38.1c.7,2.3,2.3,4.2,4.8,5.7,2.5,1.5,5.6,2.3,9.4,2.3s4.8-.4,6.9-1.3,3.9-1.9,5.3-3.1l9.5,8.5c-2.2,2.8-5.3,5.2-9.3,7.2-4,2-8.6,3-13.8,3s-11.9-1.2-16.5-3.5h0ZM1039.9,824c-1.9,1.8-2.9,4-3,6.6h20.5c-.2-2.7-1.1-4.9-2.9-6.7-1.7-1.8-4.1-2.7-7.2-2.7s-5.5.9-7.4,2.7h0Z"/>
        <path class="st1" d="M1132.6,861.9h-17.7v-37.3h-5.9v-15.8h6.1v-3.9c0-5.1,1.5-9.3,4.4-12.6,2.9-3.3,7.5-5,13.6-5s6.4.6,9.2,1.7,5.3,2.5,7.2,4l-6.9,10.3c-.6-.6-1.3-1.1-2.1-1.5-.8-.4-1.7-.6-2.7-.6-1.7,0-2.9.5-3.9,1.4-.9.9-1.4,2.3-1.4,4.2v2.1h11.8v15.8h-11.8v37.3h0Z"/>
        <path class="st1" d="M1209.8,807.8v54h-17.7v-7.4c-5.8,5.7-11.8,8.5-18.2,8.5s-7.3-.9-10.2-2.8-5.3-4.5-6.9-8c-1.7-3.5-2.5-7.7-2.5-12.6v-31.6h17.7v29.3c0,3,.9,5.5,2.7,7.2,1.8,1.8,4.1,2.6,7.1,2.6s5.5-.9,7.4-2.7c2-1.8,2.9-4.2,2.9-7.1v-29.3h17.7Z"/>
        <path class="st1" d="M1247.8,810.2c3-1.9,6.8-2.9,11.5-2.9v18.6h-1.9c-11.6,0-17.3,5.3-17.3,15.8v20.2h-17.7v-54h17.7v9.7c2.2-3,4.7-5.5,7.7-7.4h0Z"/>
        <path class="st1" d="M1314,809.5c2.9,1.8,5.3,4.5,6.9,8,1.7,3.5,2.5,7.7,2.5,12.6v31.6h-17.7v-29.3c0-3-.9-5.5-2.7-7.2-1.8-1.8-4.1-2.6-7.1-2.6s-5.5.9-7.4,2.7c-2,1.8-2.9,4.2-2.9,7.1v29.3h-17.7v-54h17.7v7.4c5.8-5.7,11.8-8.5,18.2-8.5s7.3.9,10.2,2.8h0Z"/>
        <path class="st1" d="M1351.6,800.5c-1.9,1.8-4.2,2.7-6.8,2.7s-5.1-.9-7.1-2.7c-2-1.8-2.9-4-2.9-6.6s1-4.6,2.9-6.5c2-1.8,4.3-2.8,7.1-2.8s4.9.9,6.8,2.7c1.9,1.8,2.9,4,2.9,6.5s-.9,4.8-2.8,6.6h0ZM1335.8,807.8h17.7v54h-17.7v-54Z"/>
        <path class="st1" d="M1387.4,841.8c0,2.3.6,3.9,1.8,4.9,1.2,1,2.7,1.5,4.6,1.5s3.2-.3,4.8-.9l2.4,13.2c-1.3.6-3.2,1.2-5.5,1.6s-5,.7-8,.7c-5.7,0-10-1.3-13.2-3.9s-4.7-6.4-4.7-11.4v-24.1h-5.7v-7.2l22.5-21.6h1.1v13h10.9v15.7h-10.9v18.3h0Z"/>
        <path class="st1" d="M1464.9,807.8v54h-17.7v-7.4c-5.8,5.7-11.8,8.5-18.2,8.5s-7.3-.9-10.2-2.8-5.3-4.5-6.9-8c-1.7-3.5-2.5-7.7-2.5-12.6v-31.6h17.7v29.3c0,3,.9,5.5,2.7,7.2,1.8,1.8,4.1,2.6,7.1,2.6s5.5-.9,7.4-2.7c2-1.8,2.9-4.2,2.9-7.1v-29.3h17.7Z"/>
        <path class="st1" d="M1502.8,810.2c3-1.9,6.8-2.9,11.5-2.9v18.6h-1.9c-11.6,0-17.3,5.3-17.3,15.8v20.2h-17.7v-54h17.7v9.7c2.2-3,4.7-5.5,7.7-7.4h0Z"/>
        <path class="st1" d="M1534.1,859.4c-4.7-2.3-8.2-5.6-10.7-9.9-2.4-4.2-3.7-9.1-3.7-14.6s1.4-11,4.1-15.2c2.7-4.3,6.3-7.5,10.6-9.6s8.9-3.2,13.7-3.2,10.5,1.2,14.7,3.5,7.5,5.7,9.9,10.2,3.5,9.7,3.5,15.8,0,3-.3,4.5h-38.1c.7,2.3,2.3,4.2,4.8,5.7,2.5,1.5,5.6,2.3,9.4,2.3s4.8-.4,6.9-1.3,3.9-1.9,5.3-3.1l9.5,8.5c-2.2,2.8-5.3,5.2-9.3,7.2-4,2-8.6,3-13.8,3s-11.9-1.2-16.5-3.5h0ZM1540.7,824c-1.9,1.8-2.9,4-3,6.6h20.5c-.2-2.7-1.1-4.9-2.9-6.7-1.7-1.8-4.1-2.7-7.2-2.7s-5.5.9-7.4,2.7h0Z"/>
      </g>
    </g>
  </g>
</svg>